HIERARCHY
ROOT hip
{
  OFFSET 0 0 0
  CHANNELS 6 Xposition Yposition Zposition Zrotation Yrotation Xrotation
  JOINT abdomen
  {
    OFFSET 0 20.6881 -0.73152
    CHANNELS 3 Zrotation Xrotation Yrotation
    JOINT chest
    {
      OFFSET 0 11.7043 -0.48768
      CHANNELS 3 Zrotation Xrotation Yrotation
      JOINT neck
      {
        OFFSET 0 22.1894 -2.19456
        CHANNELS 3 Zrotation Xrotation Yrotation
        JOINT head
        {
          OFFSET -0.24384 7.07133 1.2192
          CHANNELS 3 Zrotation Xrotation Yrotation
          JOINT leftEye
          {
            OFFSET 4.14528 8.04674 8.04672
            CHANNELS 3 Zrotation Xrotation Yrotation
            End Site
            {
              OFFSET 1 0 0
            }
          }
          JOINT rightEye
          {
            OFFSET -3.6576 8.04674 8.04672
            CHANNELS 3 Zrotation Xrotation Yrotation
            End Site
            {
              OFFSET 1 0 0
            }
          }
        }
      }
      JOINT rCollar
      {
        OFFSET -2.68224 19.2634 -4.8768
        CHANNELS 3 Zrotation Xrotation Yrotation
        JOINT rShldr
        {
          OFFSET -8.77824 -1.95073 1.46304
          CHANNELS 3 Zrotation Xrotation Yrotation
          JOINT rForeArm
          {
            OFFSET -28.1742 -1.7115 0.48768
            CHANNELS 3 Zrotation Xrotation Yrotation
            JOINT rHand
            {
              OFFSET -22.5879 0.773209 7.07136
              CHANNELS 3 Zrotation Xrotation Yrotation
              JOINT rThumb1
              {
                OFFSET -1.2192 -0.487915 3.41376
                CHANNELS 3 Zrotation Xrotation Yrotation
                JOINT rThumb2
                {
                  OFFSET -3.37035 -0.52449 3.41376
                  CHANNELS 3 Zrotation Xrotation Yrotation
                  End Site
                  {
                    OFFSET -1.78271 -1.18214 1.43049
                  }
                }
              }
              JOINT rIndex1
              {
                OFFSET -7.75947 0.938293 5.60832
                CHANNELS 3 Zrotation Xrotation Yrotation
                JOINT rIndex2
                {
                  OFFSET -2.54057 -0.884171 1.56538
                  CHANNELS 3 Zrotation Xrotation Yrotation
                  End Site
                  {
                    OFFSET -1.62519 -0.234802 1.16502
                  }
                }
              }
              JOINT rMid1
              {
                OFFSET -8.24714 1.18213 3.41376
                CHANNELS 3 Zrotation Xrotation Yrotation
                JOINT rMid2
                {
                  OFFSET -3.10165 -0.590103 1.0647
                  CHANNELS 3 Zrotation Xrotation Yrotation
                  End Site
                  {
                    OFFSET -2.48547 -0.328903 0.83742
                  }
                }
              }
              JOINT rRing1
              {
                OFFSET -8.82822 0.546677 1.51678
                CHANNELS 3 Zrotation Xrotation Yrotation
                JOINT rRing2
                {
                  OFFSET -2.60934 -0.819778 -0.0198488
                  CHANNELS 3 Zrotation Xrotation Yrotation
                  End Site
                  {
                    OFFSET -2.33842 -0.294052 0.168128
                  }
                }
              }
              JOINT rPinky1
              {
                OFFSET -8.27202 -0.0477905 -0.4584
                CHANNELS 3 Zrotation Xrotation Yrotation
                JOINT rPinky2
                {
                  OFFSET -1.82734 -0.647385 -0.700984
                  CHANNELS 3 Zrotation Xrotation Yrotation
                  End Site
                  {
                    OFFSET -1.69225 -0.51767 -0.607171
                  }
                }
              }
            }
          }
        }
      }
      JOINT lCollar
      {
        OFFSET 2.68224 19.2634 -4.8768
        CHANNELS 3 Zrotation Xrotation Yrotation
        JOINT lShldr
        {
          OFFSET 8.77824 -1.95073 1.46304
          CHANNELS 3 Zrotation Xrotation Yrotation
          JOINT lForeArm
          {
            OFFSET 28.1742 -1.7115 0.48768
            CHANNELS 3 Zrotation Xrotation Yrotation
            JOINT lHand
            {
              OFFSET 22.5879 0.773209 7.07136
              CHANNELS 3 Zrotation Xrotation Yrotation
              JOINT lThumb1
              {
                OFFSET 1.2192 -0.487915 3.41376
                CHANNELS 3 Zrotation Xrotation Yrotation
                JOINT lThumb2
                {
                  OFFSET 3.37035 -0.52449 3.41376
                  CHANNELS 3 Zrotation Xrotation Yrotation
                  End Site
                  {
                    OFFSET 1.78271 -1.18214 1.43049
                  }
                }
              }
              JOINT lIndex1
              {
                OFFSET 7.75947 0.938293 5.60832
                CHANNELS 3 Zrotation Xrotation Yrotation
                JOINT lIndex2
                {
                  OFFSET 2.54057 -0.884171 1.56538
                  CHANNELS 3 Zrotation Xrotation Yrotation
                  End Site
                  {
                    OFFSET 1.62519 -0.234802 1.16502
                  }
                }
              }
              JOINT lMid1
              {
                OFFSET 8.24714 1.18213 3.41376
                CHANNELS 3 Zrotation Xrotation Yrotation
                JOINT lMid2
                {
                  OFFSET 3.10165 -0.590103 1.0647
                  CHANNELS 3 Zrotation Xrotation Yrotation
                  End Site
                  {
                    OFFSET 2.48547 -0.328903 0.83742
                  }
                }
              }
              JOINT lRing1
              {
                OFFSET 8.82822 0.546677 1.51678
                CHANNELS 3 Zrotation Xrotation Yrotation
                JOINT lRing2
                {
                  OFFSET 2.60934 -0.819778 -0.0198488
                  CHANNELS 3 Zrotation Xrotation Yrotation
                  End Site
                  {
                    OFFSET 2.33842 -0.294052 0.168128
                  }
                }
              }
              JOINT lPinky1
              {
                OFFSET 8.27202 -0.0477905 -0.4584
                CHANNELS 3 Zrotation Xrotation Yrotation
                JOINT lPinky2
                {
                  OFFSET 1.82734 -0.647385 -0.700984
                  CHANNELS 3 Zrotation Xrotation Yrotation
                  End Site
                  {
                    OFFSET 1.69225 -0.51767 -0.607171
                  }
                }
              }
            }
          }
        }
      }
    }
  }
  JOINT rButtock
  {
    OFFSET -8.77824 4.35084 1.2192
    CHANNELS 3 Zrotation Xrotation Yrotation
    JOINT rThigh
    {
      OFFSET 0 -1.70687 -2.19456
      CHANNELS 3 Zrotation Xrotation Yrotation
      JOINT rShin
      {
        OFFSET 0 -36.8199 0.73152
        CHANNELS 3 Zrotation Xrotation Yrotation
        JOINT rFoot
        {
          OFFSET 0.73152 -45.1104 -5.12064
          CHANNELS 3 Zrotation Xrotation Yrotation
          End Site
          {
            OFFSET -1.1221 -3.69964 12.103
          }
        }
      }
    }
  }
  JOINT lButtock
  {
    OFFSET 8.77824 4.35084 1.2192
    CHANNELS 3 Zrotation Xrotation Yrotation
    JOINT lThigh
    {
      OFFSET 0 -1.70687 -2.19456
      CHANNELS 3 Zrotation Xrotation Yrotation
      JOINT lShin
      {
        OFFSET 0 -36.8199 0.73152
        CHANNELS 3 Zrotation Xrotation Yrotation
        JOINT lFoot
        {
          OFFSET -0.73152 -45.1104 -5.12064
          CHANNELS 3 Zrotation Xrotation Yrotation
          End Site
          {
            OFFSET 1.1221 -3.69964 12.103
          }
        }
      }
    }
  }
}
MOTION
Frames:	7
Frame Time:	0.00833333
209.84 82.8684 79.1542 -172.22 63.5841 -171.848 -6.73779 15.7857 3.00341 1.70922 -1.9846 0.755881 0.805031 -5.39602 -0.966236 -6.486 3.33365 -1.51047 -0.0 0.0 0.0 -0.0 0.0 0.0 -4.05047e-13 9.7278e-14 8.32809e-13 84.0013 38.6262 -17.8343 -16.9148 -9.56315 31.6359 -0.157391 -11.2321 -1.59934 3.40076e-09 8.49216e-10 2.94346e-09 5.85511e-09 1.45187e-09 5.12044e-09 3.40076e-09 8.49214e-10 2.94345e-09 7.73091 5.47488 0.417314 3.40076e-09 8.49214e-10 2.94346e-09 2.90554 0.965183 0.102902 3.40076e-09 8.49212e-10 2.94346e-09 10.2786 0.731801 0.0259123 3.40075e-09 8.49215e-10 2.94347e-09 2.22167 -0.733487 -0.20892 -4.05075e-13 9.72827e-14 8.32518e-13 -70.8168 57.842 0.229836 25.5492 -22.3419 -54.9222 0.309466 -15.7084 2.26433 2.70808e-09 -7.4235e-10 -1.73718e-09 4.68816e-09 -1.28781e-09 -2.97366e-09 2.70807e-09 -7.42347e-10 -1.73717e-09 -7.73091 5.47488 -0.417314 2.70808e-09 -7.42349e-10 -1.73718e-09 -2.90554 0.965183 -0.102902 2.70807e-09 -7.42349e-10 -1.73719e-09 -10.2786 0.731801 -0.0259123 2.70808e-09 -7.42349e-10 -1.7372e-09 -2.22167 -0.733487 0.20892 -2.03217e-16 0.0 -3.88251e-19 -16.7869 -24.3019 -3.12031 -0.631326 50.7293 0.997485 -1.39518 -3.14504 -6.34439 2.03217e-16 0.0 3.88251e-19 -18.038 2.02949 -11.2319 0.018276 11.8747 -0.191447 1.08953 -8.70449 2.66144
210.918 83.0499 78.8797 -171.127 61.3192 -170.743 -6.6919 15.4369 2.26163 2.17296 -1.74182 0.56463 -0.547287 -6.1967 -1.34758 -4.5502 4.49214 -1.75421 -0.0 0.0 0.0 -0.0 0.0 0.0 -3.9116e-13 -1.01777e-13 7.12693e-13 84.5549 37.0714 -19.7302 -16.8424 -9.4941 31.4721 -0.164792 -11.4929 -1.63746 3.53677e-09 1.00418e-09 2.85612e-09 6.0904e-09 1.71991e-09 4.97063e-09 3.53677e-09 1.00418e-09 2.85611e-09 7.73091 5.47488 0.417314 3.53677e-09 1.00418e-09 2.85613e-09 2.90554 0.965183 0.102902 3.53677e-09 1.00418e-09 2.85612e-09 10.2786 0.731801 0.0259123 3.53676e-09 1.00418e-09 2.85613e-09 2.22167 -0.733487 -0.20892 -3.91183e-13 -1.01778e-13 7.12395e-13 -67.1898 59.5349 -3.64086 26.0958 -23.6828 -57.1662 0.264338 -14.482 2.08025 2.63453e-09 -5.09307e-10 -1.36528e-09 4.55822e-09 -8.85187e-10 -2.33131e-09 2.63452e-09 -5.09305e-10 -1.36526e-09 -7.73091 5.47488 -0.417314 2.63453e-09 -5.09307e-10 -1.36528e-09 -2.90554 0.965183 -0.102902 2.63453e-09 -5.09307e-10 -1.36528e-09 -10.2786 0.731801 -0.0259123 2.63453e-09 -5.09307e-10 -1.3653e-09 -2.22167 -0.733487 0.20892 -2.03217e-16 0.0 -3.88251e-19 -17.2771 -24.8228 -3.60944 -0.541573 48.0721 0.895514 -1.5065 -3.57399 -6.90862 2.03217e-16 0.0 3.88251e-19 -17.7472 3.35105 -11.5378 0.0148928 10.7277 -0.175561 0.863471 -8.25511 1.65196
211.878 83.1857 78.3519 -172.466 59.2235 -171.625 -6.61146 15.0619 1.58541 2.57544 -1.59256 0.389842 -1.30373 -6.52421 -1.7657 -3.58087 4.92855 -2.30607 -0.0 0.0 0.0 -0.0 0.0 0.0 -2.74818e-13 -2.52547e-13 3.84362e-13 85.2072 35.7464 -21.7199 -16.8205 -9.47131 31.4278 -0.170755 -11.6947 -1.66703 2.45212e-09 4.50665e-10 1.87449e-09 4.22531e-09 7.6965e-10 3.26297e-09 2.45213e-09 4.50667e-10 1.87448e-09 7.73091 5.47488 0.417314 2.45212e-09 4.50664e-10 1.8745e-09 2.90554 0.965183 0.102902 2.45213e-09 4.50665e-10 1.87449e-09 10.2786 0.731801 0.0259123 2.45212e-09 4.50665e-10 1.8745e-09 2.22167 -0.733487 -0.20892 -2.74842e-13 -2.52552e-13 3.84053e-13 -63.1364 60.9219 -7.88128 26.5847 -25.0171 -59.3119 0.227579 -13.4405 1.92504 1.92275e-09 5.93804e-10 -8.42792e-11 3.31891e-09 1.02478e-09 -1.22419e-10 1.92274e-09 5.93805e-10 -8.42653e-11 -7.73091 5.47488 -0.417314 1.92275e-09 5.93802e-10 -8.42852e-11 -2.90554 0.965183 -0.102902 1.92274e-09 5.93803e-10 -8.42889e-11 -10.2786 0.731801 -0.0259123 1.92275e-09 5.93803e-10 -8.4303e-11 -2.22167 -0.733487 0.20892 -2.03217e-16 0.0 -3.88251e-19 -17.6838 -25.3576 -4.11044 -0.461719 45.2693 0.800439 -1.68993 -4.20466 -7.7429 2.03217e-16 0.0 3.88251e-19 -17.2259 4.52096 -11.4514 0.0118768 9.61854 -0.155015 0.623817 -7.80218 0.501719
212.829 83.2879 77.9225 -173.125 57.3461 -171.732 -6.49941 14.6477 0.943889 2.9406 -1.48645 0.223883 -1.70042 -6.57857 -2.19941 -3.19013 4.931 -3.03079 -0.0 0.0 0.0 -0.0 0.0 0.0 -8.69423e-14 -3.89563e-13 -9.89823e-14 85.9064 34.5961 -23.7514 -16.8626 -9.51249 31.5197 -0.177199 -11.9066 -1.69815 5.85444e-10 -5.37437e-10 2.60038e-10 1.01484e-09 -9.27506e-10 4.5363e-10 5.85448e-10 -5.37432e-10 2.60025e-10 7.73091 5.47488 0.417314 5.85443e-10 -5.37436e-10 2.60042e-10 2.90554 0.965183 0.102902 5.85451e-10 -5.37433e-10 2.60037e-10 10.2786 0.731801 0.0259123 5.85439e-10 -5.37436e-10 2.60048e-10 2.22167 -0.733487 -0.20892 -8.69719e-14 -3.89574e-13 -9.93022e-14 -58.696 61.9504 -12.4741 27.0166 -26.3674 -61.4048 0.194931 -12.4819 1.78293 7.52199e-10 2.27536e-09 1.85723e-09 1.28224e-09 3.93699e-09 3.22467e-09 7.52195e-10 2.27536e-09 1.85725e-09 -7.73091 5.47488 -0.417314 7.52199e-10 2.27536e-09 1.85722e-09 -2.90554 0.965183 -0.102902 7.52194e-10 2.27536e-09 1.85722e-09 -10.2786 0.731801 -0.0259123 7.52204e-10 2.27536e-09 1.85721e-09 -2.22167 -0.733487 0.20892 -2.03217e-16 0.0 -3.88251e-19 -18.0359 -25.8795 -4.65171 -0.391078 42.3184 0.711579 -1.94084 -4.96112 -8.77702 2.03217e-16 0.0 3.88251e-19 -16.5382 5.5542 -11.0007 0.00996484 8.55168 -0.130557 0.374933 -7.337 -0.791236
213.773 83.3406 77.6124 -173.473 55.4547 -171.596 -6.3716 14.2151 0.362097 3.26362 -1.37573 0.0730198 -1.9462 -6.49782 -2.63032 -3.02626 4.72385 -3.81144 -0.0 0.0 0.0 -0.0 0.0 0.0 1.09036e-13 -5.10701e-13 -6.05094e-13 86.6057 33.5827 -25.7678 -16.9483 -9.59785 31.7041 -0.184494 -12.1441 -1.73306 -1.48222e-09 -1.72606e-09 -1.44492e-09 -2.54156e-09 -2.96964e-09 -2.51447e-09 -1.48221e-09 -1.72606e-09 -1.44493e-09 7.73091 5.47488 0.417314 -1.48222e-09 -1.72606e-09 -1.44492e-09 2.90554 0.965183 0.102902 -1.48221e-09 -1.72606e-09 -1.44492e-09 10.2786 0.731801 0.0259123 -1.48222e-09 -1.72606e-09 -1.44491e-09 2.22167 -0.733487 -0.20892 1.08995e-13 -5.10717e-13 -6.05414e-13 -53.9501 62.6208 -17.3659 27.3695 -27.6448 -63.4168 0.16944 -11.6755 1.66411 -5.28265e-10 4.02476e-09 3.78735e-09 -9.44034e-10 6.96677e-09 6.55134e-09 -5.28267e-10 4.02476e-09 3.78737e-09 -7.73091 5.47488 -0.417314 -5.28266e-10 4.02476e-09 3.78734e-09 -2.90554 0.965183 -0.102902 -5.28271e-10 4.02476e-09 3.78734e-09 -10.2786 0.731801 -0.0259123 -5.28259e-10 4.02476e-09 3.78733e-09 -2.22167 -0.733487 0.20892 -2.03217e-16 0.0 -3.88251e-19 -18.3331 -26.3572 -5.13004 -0.325795 39.2496 0.623895 -2.22012 -5.77493 -9.79279 2.03217e-16 0.0 3.88251e-19 -15.7803 6.50666 -10.4047 0.00922447 7.56642 -0.103025 0.139318 -6.89449 -2.10456
214.69 83.3313 77.3262 -173.678 53.6102 -171.301 -6.24209 13.7853 -0.135389 3.54015 -1.21262 -0.0564707 -2.2541 -6.41992 -3.04059 -2.72704 4.53152 -4.53206 -0.0 0.0 0.0 -0.0 0.0 0.0 2.49688e-13 -6.13838e-13 -1.00173e-12 87.2554 32.6723 -27.7122 -17.057 -9.70757 31.9374 -0.193094 -12.4226 -1.77405 -3.1698e-09 -2.88116e-09 -2.69806e-09 -5.44443e-09 -4.95484e-09 -4.69841e-09 -3.1698e-09 -2.88115e-09 -2.69808e-09 7.73091 5.47488 0.417314 -3.16981e-09 -2.88115e-09 -2.69806e-09 2.90554 0.965183 0.102902 -3.16979e-09 -2.88115e-09 -2.69807e-09 10.2786 0.731801 0.0259123 -3.16981e-09 -2.88115e-09 -2.69805e-09 2.22167 -0.733487 -0.20892 2.49625e-13 -6.13857e-13 -1.00202e-12 -49.0011 62.9342 -22.4798 27.6387 -28.7735 -65.2949 0.153262 -11.0901 1.57857 -1.5698e-09 5.33141e-09 5.03416e-09 -2.75214e-09 9.22945e-09 8.69896e-09 -1.5698e-09 5.33141e-09 5.03418e-09 -7.73091 5.47488 -0.417314 -1.5698e-09 5.3314e-09 5.03415e-09 -2.90554 0.965183 -0.102902 -1.5698e-09 5.33141e-09 5.03416e-09 -10.2786 0.731801 -0.0259123 -1.56979e-09 5.33141e-09 5.03414e-09 -2.22167 -0.733487 0.20892 -2.03217e-16 0.0 -3.88251e-19 -18.5706 -26.7609 -5.43995 -0.26305 36.0933 0.532875 -2.47202 -6.58143 -10.5702 2.03217e-16 0.0 3.88251e-19 -15.0338 7.43179 -9.88481 0.00956518 6.70204 -0.0732263 -0.0675445 -6.5108 -3.31677
215.639 83.28 77.0343 -173.603 51.8837 -170.784 -6.07356 13.3411 -0.519335 3.76324 -0.969783 -0.155706 -2.65912 -6.35742 -3.4291 -2.22001 4.36752 -5.17951 -0.0 0.0 0.0 -0.0 0.0 0.0 3.1707e-13 -7.03576e-13 -1.27005e-12 87.8688 31.8196 -29.5769 -17.188 -9.8401 32.2217 -0.204704 -12.7931 -1.82867 -4.4158e-09 -4.07622e-09 -3.36981e-09 -7.58783e-09 -7.00943e-09 -5.87414e-09 -4.41579e-09 -4.07621e-09 -3.36983e-09 7.73091 5.47488 0.417314 -4.4158e-09 -4.07622e-09 -3.36981e-09 2.90554 0.965183 0.102902 -4.41579e-09 -4.07621e-09 -3.36982e-09 10.2786 0.731801 0.0259123 -4.4158e-09 -4.07622e-09 -3.36981e-09 2.22167 -0.733487 -0.20892 3.16965e-13 -7.03596e-13 -1.27028e-12 -43.9196 62.8514 -27.7677 27.8543 -29.8023 -66.9974 0.145895 -10.7828 1.53401 -2.33464e-09 6.09646e-09 5.37987e-09 -4.07506e-09 1.05536e-08 9.2917e-09 -2.33464e-09 6.09646e-09 5.37989e-09 -7.73091 5.47488 -0.417314 -2.33464e-09 6.09646e-09 5.37986e-09 -2.90554 0.965183 -0.102902 -2.33465e-09 6.09646e-09 5.37986e-09 -10.2786 0.731801 -0.0259123 -2.33463e-09 6.09646e-09 5.37985e-09 -2.22167 -0.733487 0.20892 -2.03217e-16 0.0 -3.88251e-19 -18.6662 -27.0643 -5.51852 -0.199898 32.7455 0.433369 -2.68874 -7.40419 -11.1272 2.03217e-16 0.0 3.88251e-19 -14.2443 8.31333 -9.4398 0.0110312 5.99077 -0.0414207 -0.254741 -6.18621 -4.43563
